<svg width="156" height="155" viewBox="0 0 156 155" fill="none" xmlns="http://www.w3.org/2000/svg">
<path d="M69.5783 136.821L69.3424 138.132L70.6533 138.368L70.159 141.114L68.7418 140.859L69.2137 138.237L65.405 137.552L64.7194 141.36L68.6345 142.065L68.3985 143.376L69.7094 143.612L69.2152 146.358L67.9043 146.122L67.6683 147.433L63.6292 146.706L63.8652 145.395L62.5542 145.159L62.8125 143.724L64.2475 143.982L64.0115 145.293L67.8203 145.979L68.2699 143.481L64.3371 142.773L64.5731 141.462L63.2621 141.226L63.9923 137.169L65.3033 137.405L65.5392 136.094L69.5783 136.821Z" fill="white"/>
<path d="M52.8284 131.956L51.3371 135.663L56.1632 137.605L57.6546 133.897L58.9905 134.435L57.4521 138.259L56.2164 137.762L54.725 141.469L53.506 140.979L52.5117 143.45L49.9233 142.409L50.9175 139.937L49.6818 139.44L51.1731 135.733L49.9374 135.236L51.4758 131.412L52.8284 131.956ZM51.0815 139.868L53.4361 140.815L54.3833 138.46L52.0287 137.513L51.0815 139.868Z" fill="white"/>
<path d="M45.6179 127.945L41.9706 133.518L43.07 134.238L41.6111 136.467L42.7256 137.196L41.9271 138.416L40.7223 137.627L41.4517 136.513L40.3372 135.783L41.7962 133.554L40.7871 132.894L39.3282 135.123L38.2137 134.393L37.4842 135.508L36.2643 134.709L37.0628 133.49L38.1773 134.219L39.6362 131.99L40.7507 132.719L44.398 127.147L45.6179 127.945Z" fill="white"/>
<path d="M30.3267 113.893L26.175 117.232L28.6005 120.248L32.7522 116.908L33.6547 118.03L25.2532 124.788L24.3507 123.666L27.4644 121.161L25.0389 118.146L21.9252 120.65L21.0113 119.514L29.4129 112.757L30.3267 113.893Z" fill="white"/>
<path d="M26.3859 108.177L16.8238 113.159L14.3121 108.338L15.6052 107.664L17.4515 111.208L19.7023 110.035L17.856 106.492L19.149 105.818L20.9954 109.362L24.4275 107.574L22.5812 104.03L23.8742 103.356L26.3859 108.177Z" fill="white"/>
<path d="M21.5664 97.8766L11.2591 101.04L10.8365 99.6638L19.7501 96.9279L18.5775 93.1078L19.9713 92.6799L21.5664 97.8766Z" fill="white"/>
<path d="M18.9147 87.7802L8.21366 89.0991L8.0375 87.6699L17.2915 86.5293L16.8027 82.5634L18.2497 82.385L18.9147 87.7802Z" fill="white"/>
<path d="M18.0971 76.1739L16.7681 76.0845L16.6787 77.4135L8.57904 76.8688L8.66841 75.5398L7.33942 75.4505L7.61478 71.3557L8.94378 71.4451L9.03315 70.1161L17.1329 70.6608L17.0435 71.9898L18.3725 72.0792L18.0971 76.1739ZM9.06104 71.5793L8.80138 75.4405L16.6497 75.9683L16.9093 72.107L9.06104 71.5793Z" fill="white"/>
<path d="M21.6375 57.4298L20.4047 56.9255L19.9003 58.1583L12.3867 55.0846L12.8911 53.8518L11.6582 53.3474L13.2121 49.549L14.445 50.0533L14.9493 48.8205L22.4629 51.8942L21.9586 53.127L23.1914 53.6314L21.6375 57.4298ZM14.5139 50.2176L13.0486 53.7995L20.3289 56.7778L21.7942 53.1959L14.5139 50.2176Z" fill="white"/>
<path d="M29.1471 43.1689L26.9375 41.6808L26.1934 42.7856L23.9838 41.2975L22.5661 43.4026L26.9853 46.3788L26.181 47.5732L17.238 41.5504L20.2745 37.0416L21.3793 37.7856L22.1234 36.6808L24.4375 38.2393L23.6934 39.3441L26.9034 41.5059L27.6474 40.4011L29.9616 41.9596L29.1471 43.1689ZM21.4134 37.9605L19.2517 41.1705L21.3568 42.5882L23.5185 39.3783L21.4134 37.9605Z" fill="white"/>
<path d="M39.3913 32.03L38.5779 30.9752L37.5231 31.7887L35.8193 29.5794L36.9595 28.7L38.5864 30.8095L41.651 28.4461L39.2876 25.3816L36.1375 27.8109L35.3241 26.7561L34.2693 27.5696L32.5655 25.3603L33.6203 24.5468L32.8068 23.4921L36.0566 20.9858L36.8701 22.0406L37.9249 21.2271L38.8152 22.3817L37.6607 23.272L36.8473 22.2173L33.7827 24.5807L35.3327 26.5904L38.497 24.1501L39.3104 25.2049L40.3652 24.3914L42.8825 27.6555L41.8277 28.4689L42.6411 29.5237L39.3913 32.03Z" fill="white"/>
<path d="M54.2399 22.8787L52.4926 19.2849L47.8143 21.5596L49.5616 25.1533L48.2666 25.783L46.4642 22.0759L47.6621 21.4935L45.9148 17.8998L47.0965 17.3252L45.9316 14.9294L48.4408 13.7094L49.6056 16.1052L50.8035 15.5228L52.5509 19.1165L53.7488 18.5341L55.5512 22.2411L54.2399 22.8787ZM49.5474 16.2736L47.2649 17.3834L48.3747 19.6659L50.6572 18.5561L49.5474 16.2736Z" fill="white"/>
<path d="M62.0525 20.225L60.3695 13.7811L59.0981 14.1132L58.4249 11.5357L57.1362 11.8723L56.7677 10.4616L58.161 10.0977L58.4976 11.3865L59.7864 11.0499L60.4596 13.6274L61.6264 13.3226L60.9532 10.7451L62.242 10.4085L61.9054 9.11973L63.3161 8.75128L63.6845 10.162L62.3957 10.4986L63.0689 13.0761L61.7802 13.4127L63.4632 19.8565L62.0525 20.225Z" fill="white"/>
<path d="M82.7329 18.3212L83.0438 13.0023L79.1804 12.7765L78.8695 18.0954L77.4319 18.0113L78.0612 7.24772L79.4987 7.33176L79.2655 11.3209L83.1289 11.5468L83.3621 7.55761L84.8177 7.6427L84.1884 18.4063L82.7329 18.3212Z" fill="white"/>
<path d="M89.9127 19.3842L92.2549 8.85965L93.6606 9.17246L91.3184 19.697L89.9127 19.3842Z" fill="white"/>
<path d="M104.49 19.9594L105.166 18.6673L108.819 20.5772L108.143 21.8693L104.49 19.9594Z" fill="white"/>
<path d="M120.924 36.6674L122.854 34.831L122.023 33.9574L120.093 35.7938L119.088 34.7375L121.018 32.9011L120.112 31.9492L123.007 29.1946L122.089 28.2297L125.075 25.3882L126.067 26.4314L123.172 29.186L124.091 30.151L121.196 32.9056L122.027 33.7792L127.817 28.27L128.822 29.3263L123.032 34.8355L123.864 35.7091L126.758 32.9545L127.677 33.9195L130.571 31.1649L131.577 32.2211L128.59 35.0626L127.672 34.0976L124.777 36.8522L123.859 35.8873L121.929 37.7237L120.924 36.6674Z" fill="white"/>
<path d="M127.106 44.1956L136.345 38.6374L139.148 43.2954L137.898 44.047L135.838 40.6229L133.664 41.9312L135.724 45.3554L134.474 46.107L132.414 42.6828L129.098 44.6779L131.158 48.102L129.909 48.8536L127.106 44.1956Z" fill="white"/>
<path d="M138.757 65.2864L137.46 65.5871L137.159 64.2895L135.861 64.5903L134.935 60.5922L145.439 58.158L146.365 62.156L145.067 62.4568L145.368 63.7544L144.071 64.0551L144.371 65.3527L139.058 66.584L138.757 65.2864ZM143.919 63.9608L143.619 62.6632L144.916 62.3625L144.343 59.89L136.68 61.6659L137.253 64.1383L138.551 63.8376L138.852 65.1352L143.919 63.9608Z" fill="white"/>
<path d="M137.254 73.8914L138.585 73.8603L138.554 72.5287L146.67 72.3391L146.701 73.6708L148.033 73.6397L148.128 77.7426L146.797 77.7737L146.828 79.1053L138.712 79.2948L138.681 77.9632L137.349 77.9943L137.254 73.8914ZM146.668 77.6506L146.577 73.7817L138.714 73.9654L138.804 77.8343L146.668 77.6506Z" fill="white"/>
<path d="M136.079 90.0321L137.391 90.2623L137.621 88.9504L140.245 89.4109L140.475 88.0989L143.099 88.5594L143.308 87.3715L136.748 86.2203L136.997 84.802L147.617 86.6657L147.368 88.0841L146.056 87.8538L145.825 89.1658L143.202 88.7053L142.971 90.0172L140.347 89.5567L140.139 90.7446L146.699 91.8958L146.447 93.3319L135.827 91.4681L136.079 90.0321Z" fill="white"/>
<path d="M142.04 98.55L143.42 99.0183L142.993 100.28L145.515 101.135L145.047 102.516L142.405 101.62L142.833 100.359L141.571 99.9307L142.04 98.55Z" fill="white"/>
<path d="M131.068 104.339L139.337 108.647L140.568 106.284L141.861 106.958L138.725 112.976L137.432 112.302L138.663 109.94L130.394 105.632L131.068 104.339Z" fill="white"/>
<path d="M121.245 118.526L122.179 119.476L123.129 118.543L128.819 124.333L127.869 125.267L128.802 126.217L125.875 129.093L124.941 128.143L123.991 129.077L122.97 128.037L124.009 127.015L124.943 127.965L127.703 125.252L122.19 119.642L119.43 122.354L120.364 123.304L119.324 124.326L118.302 123.286L119.252 122.353L118.318 121.403L121.245 118.526Z" fill="white"/>
<path d="M107.596 129.385L109.76 132.744L114.133 129.927L111.969 126.568L113.18 125.788L115.412 129.254L114.292 129.975L116.456 133.334L115.351 134.046L116.794 136.285L114.448 137.796L113.006 135.557L111.886 136.278L109.722 132.919L108.602 133.64L106.37 130.175L107.596 129.385ZM113.044 135.382L115.177 134.008L113.803 131.874L111.669 133.249L113.044 135.382Z" fill="white"/>
<path d="M97.7334 133.893L98.6914 136.379L99.9343 135.9L100.892 138.386L103.261 137.473L101.344 132.501L102.688 131.983L106.566 142.044L101.493 143.999L101.014 142.756L99.7714 143.235L98.768 140.632L100.011 140.153L98.6192 136.542L97.3763 137.021L96.3729 134.417L97.7334 133.893ZM101.087 142.593L104.698 141.202L103.785 138.833L100.174 140.225L101.087 142.593Z" fill="white"/>
<path d="M91.0891 135.906L92.9216 146.531L87.5647 147.455L87.3169 146.018L91.2548 145.339L90.8234 142.838L86.8855 143.517L86.6377 142.08L90.5756 141.401L89.9178 137.587L85.98 138.266L85.7322 136.83L91.0891 135.906Z" fill="white"/>
<circle cx="78" cy="77" r="5" fill="white"/>
</svg>
